<?xml version="1.0" encoding="utf-8"?>
<svg xmlns="http://www.w3.org/2000/svg" xmlns:xlink="http://www.w3.org/1999/xlink" width="600" height="400" viewBox="0 0 2400 1600">
<defs>
  <clipPath id="clip510">
    <rect x="0" y="0" width="2400" height="1600"/>
  </clipPath>
</defs>
<path clip-path="url(#clip510)" d="
M0 1600 L2400 1600 L2400 0 L0 0  Z
  " fill="#ffffff" fill-rule="evenodd" fill-opacity="1"/>
<defs>
  <clipPath id="clip511">
    <rect x="480" y="0" width="1681" height="1600"/>
  </clipPath>
</defs>
<path clip-path="url(#clip510)" d="
M169.469 1486.45 L2352.76 1486.45 L2352.76 47.2441 L169.469 47.2441  Z
  " fill="#ffffff" fill-rule="evenodd" fill-opacity="1"/>
<defs>
  <clipPath id="clip512">
    <rect x="169" y="47" width="2184" height="1440"/>
  </clipPath>
</defs>
<polyline clip-path="url(#clip512)" style="stroke:#000000; stroke-width:2; stroke-opacity:0.1; fill:none" points="
  227.132,1486.45 227.132,47.2441 
  "/>
<polyline clip-path="url(#clip512)" style="stroke:#000000; stroke-width:2; stroke-opacity:0.1; fill:none" points="
  639.899,1486.45 639.899,47.2441 
  "/>
<polyline clip-path="url(#clip512)" style="stroke:#000000; stroke-width:2; stroke-opacity:0.1; fill:none" points="
  1052.67,1486.45 1052.67,47.2441 
  "/>
<polyline clip-path="url(#clip512)" style="stroke:#000000; stroke-width:2; stroke-opacity:0.1; fill:none" points="
  1465.43,1486.45 1465.43,47.2441 
  "/>
<polyline clip-path="url(#clip512)" style="stroke:#000000; stroke-width:2; stroke-opacity:0.1; fill:none" points="
  1878.2,1486.45 1878.2,47.2441 
  "/>
<polyline clip-path="url(#clip512)" style="stroke:#000000; stroke-width:2; stroke-opacity:0.1; fill:none" points="
  2290.96,1486.45 2290.96,47.2441 
  "/>
<polyline clip-path="url(#clip510)" style="stroke:#000000; stroke-width:4; stroke-opacity:1; fill:none" points="
  169.469,1486.45 2352.76,1486.45 
  "/>
<polyline clip-path="url(#clip510)" style="stroke:#000000; stroke-width:4; stroke-opacity:1; fill:none" points="
  227.132,1486.45 227.132,1469.18 
  "/>
<polyline clip-path="url(#clip510)" style="stroke:#000000; stroke-width:4; stroke-opacity:1; fill:none" points="
  639.899,1486.45 639.899,1469.18 
  "/>
<polyline clip-path="url(#clip510)" style="stroke:#000000; stroke-width:4; stroke-opacity:1; fill:none" points="
  1052.67,1486.45 1052.67,1469.18 
  "/>
<polyline clip-path="url(#clip510)" style="stroke:#000000; stroke-width:4; stroke-opacity:1; fill:none" points="
  1465.43,1486.45 1465.43,1469.18 
  "/>
<polyline clip-path="url(#clip510)" style="stroke:#000000; stroke-width:4; stroke-opacity:1; fill:none" points="
  1878.2,1486.45 1878.2,1469.18 
  "/>
<polyline clip-path="url(#clip510)" style="stroke:#000000; stroke-width:4; stroke-opacity:1; fill:none" points="
  2290.96,1486.45 2290.96,1469.18 
  "/>
<path clip-path="url(#clip510)" d="M 0 0 M227.132 1515.64 Q223.521 1515.64 221.692 1519.2 Q219.887 1522.75 219.887 1529.87 Q219.887 1536.98 221.692 1540.55 Q223.521 1544.09 227.132 1544.09 Q230.766 1544.09 232.572 1540.55 Q234.401 1536.98 234.401 1529.87 Q234.401 1522.75 232.572 1519.2 Q230.766 1515.64 227.132 1515.64 M227.132 1511.93 Q232.942 1511.93 235.998 1516.54 Q239.076 1521.12 239.076 1529.87 Q239.076 1538.6 235.998 1543.21 Q232.942 1547.79 227.132 1547.79 Q221.322 1547.79 218.243 1543.21 Q215.188 1538.6 215.188 1529.87 Q215.188 1521.12 218.243 1516.54 Q221.322 1511.93 227.132 1511.93 Z" fill="#000000" fill-rule="evenodd" fill-opacity="1" /><path clip-path="url(#clip510)" d="M 0 0 M603.267 1543.18 L610.906 1543.18 L610.906 1516.82 L602.596 1518.49 L602.596 1514.23 L610.859 1512.56 L615.535 1512.56 L615.535 1543.18 L623.174 1543.18 L623.174 1547.12 L603.267 1547.12 L603.267 1543.18 Z" fill="#000000" fill-rule="evenodd" fill-opacity="1" /><path clip-path="url(#clip510)" d="M 0 0 M638.243 1515.64 Q634.632 1515.64 632.804 1519.2 Q630.998 1522.75 630.998 1529.87 Q630.998 1536.98 632.804 1540.55 Q634.632 1544.09 638.243 1544.09 Q641.878 1544.09 643.683 1540.55 Q645.512 1536.98 645.512 1529.87 Q645.512 1522.75 643.683 1519.2 Q641.878 1515.64 638.243 1515.64 M638.243 1511.93 Q644.054 1511.93 647.109 1516.54 Q650.188 1521.12 650.188 1529.87 Q650.188 1538.6 647.109 1543.21 Q644.054 1547.79 638.243 1547.79 Q632.433 1547.79 629.355 1543.21 Q626.299 1538.6 626.299 1529.87 Q626.299 1521.12 629.355 1516.54 Q632.433 1511.93 638.243 1511.93 Z" fill="#000000" fill-rule="evenodd" fill-opacity="1" /><path clip-path="url(#clip510)" d="M 0 0 M665.257 1515.64 Q661.646 1515.64 659.817 1519.2 Q658.012 1522.75 658.012 1529.87 Q658.012 1536.98 659.817 1540.55 Q661.646 1544.09 665.257 1544.09 Q668.891 1544.09 670.697 1540.55 Q672.526 1536.98 672.526 1529.87 Q672.526 1522.75 670.697 1519.2 Q668.891 1515.64 665.257 1515.64 M665.257 1511.93 Q671.067 1511.93 674.123 1516.54 Q677.202 1521.12 677.202 1529.87 Q677.202 1538.6 674.123 1543.21 Q671.067 1547.79 665.257 1547.79 Q659.447 1547.79 656.368 1543.21 Q653.313 1538.6 653.313 1529.87 Q653.313 1521.12 656.368 1516.54 Q659.447 1511.93 665.257 1511.93 Z" fill="#000000" fill-rule="evenodd" fill-opacity="1" /><path clip-path="url(#clip510)" d="M 0 0 M1020.3 1543.18 L1036.62 1543.18 L1036.62 1547.12 L1014.68 1547.12 L1014.68 1543.18 Q1017.34 1540.43 1021.92 1535.8 Q1026.53 1531.15 1027.71 1529.81 Q1029.96 1527.28 1030.84 1525.55 Q1031.74 1523.79 1031.74 1522.1 Q1031.74 1519.34 1029.79 1517.61 Q1027.87 1515.87 1024.77 1515.87 Q1022.57 1515.87 1020.12 1516.63 Q1017.69 1517.4 1014.91 1518.95 L1014.91 1514.23 Q1017.73 1513.09 1020.19 1512.51 Q1022.64 1511.93 1024.68 1511.93 Q1030.05 1511.93 1033.24 1514.62 Q1036.44 1517.31 1036.44 1521.8 Q1036.44 1523.93 1035.63 1525.85 Q1034.84 1527.74 1032.73 1530.34 Q1032.16 1531.01 1029.05 1534.23 Q1025.95 1537.42 1020.3 1543.18 Z" fill="#000000" fill-rule="evenodd" fill-opacity="1" /><path clip-path="url(#clip510)" d="M 0 0 M1051.69 1515.64 Q1048.08 1515.64 1046.25 1519.2 Q1044.45 1522.75 1044.45 1529.87 Q1044.45 1536.98 1046.25 1540.55 Q1048.08 1544.09 1051.69 1544.09 Q1055.33 1544.09 1057.13 1540.55 Q1058.96 1536.98 1058.96 1529.87 Q1058.96 1522.75 1057.13 1519.2 Q1055.33 1515.64 1051.69 1515.64 M1051.69 1511.93 Q1057.5 1511.93 1060.56 1516.54 Q1063.64 1521.12 1063.64 1529.87 Q1063.64 1538.6 1060.56 1543.21 Q1057.5 1547.79 1051.69 1547.79 Q1045.88 1547.79 1042.8 1543.21 Q1039.75 1538.6 1039.75 1529.87 Q1039.75 1521.12 1042.8 1516.54 Q1045.88 1511.93 1051.69 1511.93 Z" fill="#000000" fill-rule="evenodd" fill-opacity="1" /><path clip-path="url(#clip510)" d="M 0 0 M1078.71 1515.64 Q1075.1 1515.64 1073.27 1519.2 Q1071.46 1522.75 1071.46 1529.87 Q1071.46 1536.98 1073.27 1540.55 Q1075.1 1544.09 1078.71 1544.09 Q1082.34 1544.09 1084.15 1540.55 Q1085.98 1536.98 1085.98 1529.87 Q1085.98 1522.75 1084.15 1519.2 Q1082.34 1515.64 1078.71 1515.64 M1078.71 1511.93 Q1084.52 1511.93 1087.57 1516.54 Q1090.65 1521.12 1090.65 1529.87 Q1090.65 1538.6 1087.57 1543.21 Q1084.52 1547.79 1078.71 1547.79 Q1072.9 1547.79 1069.82 1543.21 Q1066.76 1538.6 1066.76 1529.87 Q1066.76 1521.12 1069.82 1516.54 Q1072.9 1511.93 1078.71 1511.93 Z" fill="#000000" fill-rule="evenodd" fill-opacity="1" /><path clip-path="url(#clip510)" d="M 0 0 M1442.67 1528.49 Q1446.02 1529.2 1447.9 1531.47 Q1449.8 1533.74 1449.8 1537.07 Q1449.8 1542.19 1446.28 1544.99 Q1442.76 1547.79 1436.28 1547.79 Q1434.1 1547.79 1431.79 1547.35 Q1429.49 1546.93 1427.04 1546.08 L1427.04 1541.56 Q1428.99 1542.7 1431.3 1543.28 Q1433.61 1543.86 1436.14 1543.86 Q1440.54 1543.86 1442.83 1542.12 Q1445.14 1540.38 1445.14 1537.07 Q1445.14 1534.02 1442.99 1532.31 Q1440.86 1530.57 1437.04 1530.57 L1433.01 1530.57 L1433.01 1526.73 L1437.23 1526.73 Q1440.67 1526.73 1442.5 1525.36 Q1444.33 1523.97 1444.33 1521.38 Q1444.33 1518.72 1442.43 1517.31 Q1440.56 1515.87 1437.04 1515.87 Q1435.12 1515.87 1432.92 1516.29 Q1430.72 1516.7 1428.08 1517.58 L1428.08 1513.42 Q1430.74 1512.68 1433.06 1512.31 Q1435.4 1511.93 1437.46 1511.93 Q1442.78 1511.93 1445.88 1514.37 Q1448.98 1516.77 1448.98 1520.89 Q1448.98 1523.76 1447.34 1525.75 Q1445.7 1527.72 1442.67 1528.49 Z" fill="#000000" fill-rule="evenodd" fill-opacity="1" /><path clip-path="url(#clip510)" d="M 0 0 M1464.86 1515.64 Q1461.25 1515.64 1459.42 1519.2 Q1457.62 1522.75 1457.62 1529.87 Q1457.62 1536.98 1459.42 1540.55 Q1461.25 1544.09 1464.86 1544.09 Q1468.5 1544.09 1470.3 1540.55 Q1472.13 1536.98 1472.13 1529.87 Q1472.13 1522.75 1470.3 1519.2 Q1468.5 1515.64 1464.86 1515.64 M1464.86 1511.93 Q1470.67 1511.93 1473.73 1516.54 Q1476.81 1521.12 1476.81 1529.87 Q1476.81 1538.6 1473.73 1543.21 Q1470.67 1547.79 1464.86 1547.79 Q1459.05 1547.79 1455.98 1543.21 Q1452.92 1538.6 1452.92 1529.87 Q1452.92 1521.12 1455.98 1516.54 Q1459.05 1511.93 1464.86 1511.93 Z" fill="#000000" fill-rule="evenodd" fill-opacity="1" /><path clip-path="url(#clip510)" d="M 0 0 M1491.88 1515.64 Q1488.27 1515.64 1486.44 1519.2 Q1484.63 1522.75 1484.63 1529.87 Q1484.63 1536.98 1486.44 1540.55 Q1488.27 1544.09 1491.88 1544.09 Q1495.51 1544.09 1497.32 1540.55 Q1499.15 1536.98 1499.15 1529.87 Q1499.15 1522.75 1497.32 1519.2 Q1495.51 1515.64 1491.88 1515.64 M1491.88 1511.93 Q1497.69 1511.93 1500.74 1516.54 Q1503.82 1521.12 1503.82 1529.87 Q1503.82 1538.6 1500.74 1543.21 Q1497.69 1547.79 1491.88 1547.79 Q1486.07 1547.79 1482.99 1543.21 Q1479.93 1538.6 1479.93 1529.87 Q1479.93 1521.12 1482.99 1516.54 Q1486.07 1511.93 1491.88 1511.93 Z" fill="#000000" fill-rule="evenodd" fill-opacity="1" /><path clip-path="url(#clip510)" d="M 0 0 M1854.19 1516.63 L1842.39 1535.08 L1854.19 1535.08 L1854.19 1516.63 M1852.97 1512.56 L1858.85 1512.56 L1858.85 1535.08 L1863.78 1535.08 L1863.78 1538.97 L1858.85 1538.97 L1858.85 1547.12 L1854.19 1547.12 L1854.19 1538.97 L1838.59 1538.97 L1838.59 1534.46 L1852.97 1512.56 Z" fill="#000000" fill-rule="evenodd" fill-opacity="1" /><path clip-path="url(#clip510)" d="M 0 0 M1878.85 1515.64 Q1875.24 1515.64 1873.41 1519.2 Q1871.6 1522.75 1871.6 1529.87 Q1871.6 1536.98 1873.41 1540.55 Q1875.24 1544.09 1878.85 1544.09 Q1882.48 1544.09 1884.29 1540.55 Q1886.11 1536.98 1886.11 1529.87 Q1886.11 1522.75 1884.29 1519.2 Q1882.48 1515.64 1878.85 1515.64 M1878.85 1511.93 Q1884.66 1511.93 1887.71 1516.54 Q1890.79 1521.12 1890.79 1529.87 Q1890.79 1538.6 1887.71 1543.21 Q1884.66 1547.79 1878.85 1547.79 Q1873.04 1547.79 1869.96 1543.21 Q1866.9 1538.6 1866.9 1529.87 Q1866.9 1521.12 1869.96 1516.54 Q1873.04 1511.93 1878.85 1511.93 Z" fill="#000000" fill-rule="evenodd" fill-opacity="1" /><path clip-path="url(#clip510)" d="M 0 0 M1905.86 1515.64 Q1902.25 1515.64 1900.42 1519.2 Q1898.61 1522.75 1898.61 1529.87 Q1898.61 1536.98 1900.42 1540.55 Q1902.25 1544.09 1905.86 1544.09 Q1909.49 1544.09 1911.3 1540.55 Q1913.13 1536.98 1913.13 1529.87 Q1913.13 1522.75 1911.3 1519.2 Q1909.49 1515.64 1905.86 1515.64 M1905.86 1511.93 Q1911.67 1511.93 1914.73 1516.54 Q1917.8 1521.12 1917.8 1529.87 Q1917.8 1538.6 1914.73 1543.21 Q1911.67 1547.79 1905.86 1547.79 Q1900.05 1547.79 1896.97 1543.21 Q1893.92 1538.6 1893.92 1529.87 Q1893.92 1521.12 1896.97 1516.54 Q1900.05 1511.93 1905.86 1511.93 Z" fill="#000000" fill-rule="evenodd" fill-opacity="1" /><path clip-path="url(#clip510)" d="M 0 0 M2254.23 1512.56 L2272.59 1512.56 L2272.59 1516.5 L2258.51 1516.5 L2258.51 1524.97 Q2259.53 1524.62 2260.55 1524.46 Q2261.57 1524.27 2262.59 1524.27 Q2268.37 1524.27 2271.75 1527.44 Q2275.13 1530.62 2275.13 1536.03 Q2275.13 1541.61 2271.66 1544.71 Q2268.19 1547.79 2261.87 1547.79 Q2259.69 1547.79 2257.42 1547.42 Q2255.18 1547.05 2252.77 1546.31 L2252.77 1541.61 Q2254.85 1542.74 2257.08 1543.3 Q2259.3 1543.86 2261.78 1543.86 Q2265.78 1543.86 2268.12 1541.75 Q2270.46 1539.64 2270.46 1536.03 Q2270.46 1532.42 2268.12 1530.31 Q2265.78 1528.21 2261.78 1528.21 Q2259.9 1528.21 2258.03 1528.62 Q2256.17 1529.04 2254.23 1529.92 L2254.23 1512.56 Z" fill="#000000" fill-rule="evenodd" fill-opacity="1" /><path clip-path="url(#clip510)" d="M 0 0 M2290.2 1515.64 Q2286.59 1515.64 2284.76 1519.2 Q2282.96 1522.75 2282.96 1529.87 Q2282.96 1536.98 2284.76 1540.55 Q2286.59 1544.09 2290.2 1544.09 Q2293.84 1544.09 2295.64 1540.55 Q2297.47 1536.98 2297.47 1529.87 Q2297.47 1522.75 2295.64 1519.2 Q2293.84 1515.64 2290.2 1515.64 M2290.2 1511.93 Q2296.01 1511.93 2299.07 1516.54 Q2302.15 1521.12 2302.15 1529.87 Q2302.15 1538.6 2299.07 1543.21 Q2296.01 1547.79 2290.2 1547.79 Q2284.39 1547.79 2281.31 1543.21 Q2278.26 1538.6 2278.26 1529.87 Q2278.26 1521.12 2281.31 1516.54 Q2284.39 1511.93 2290.2 1511.93 Z" fill="#000000" fill-rule="evenodd" fill-opacity="1" /><path clip-path="url(#clip510)" d="M 0 0 M2317.21 1515.64 Q2313.6 1515.64 2311.77 1519.2 Q2309.97 1522.75 2309.97 1529.87 Q2309.97 1536.98 2311.77 1540.55 Q2313.6 1544.09 2317.21 1544.09 Q2320.85 1544.09 2322.65 1540.55 Q2324.48 1536.98 2324.48 1529.87 Q2324.48 1522.75 2322.65 1519.2 Q2320.85 1515.64 2317.21 1515.64 M2317.21 1511.93 Q2323.02 1511.93 2326.08 1516.54 Q2329.16 1521.12 2329.16 1529.87 Q2329.16 1538.6 2326.08 1543.21 Q2323.02 1547.79 2317.21 1547.79 Q2311.4 1547.79 2308.33 1543.21 Q2305.27 1538.6 2305.27 1529.87 Q2305.27 1521.12 2308.33 1516.54 Q2311.4 1511.93 2317.21 1511.93 Z" fill="#000000" fill-rule="evenodd" fill-opacity="1" /><polyline clip-path="url(#clip512)" style="stroke:#000000; stroke-width:2; stroke-opacity:0.1; fill:none" points="
  169.469,1283.34 2352.76,1283.34 
  "/>
<polyline clip-path="url(#clip512)" style="stroke:#000000; stroke-width:2; stroke-opacity:0.1; fill:none" points="
  169.469,1009.07 2352.76,1009.07 
  "/>
<polyline clip-path="url(#clip512)" style="stroke:#000000; stroke-width:2; stroke-opacity:0.1; fill:none" points="
  169.469,734.791 2352.76,734.791 
  "/>
<polyline clip-path="url(#clip512)" style="stroke:#000000; stroke-width:2; stroke-opacity:0.1; fill:none" points="
  169.469,460.515 2352.76,460.515 
  "/>
<polyline clip-path="url(#clip512)" style="stroke:#000000; stroke-width:2; stroke-opacity:0.1; fill:none" points="
  169.469,186.239 2352.76,186.239 
  "/>
<polyline clip-path="url(#clip510)" style="stroke:#000000; stroke-width:4; stroke-opacity:1; fill:none" points="
  169.469,1486.45 169.469,47.2441 
  "/>
<polyline clip-path="url(#clip510)" style="stroke:#000000; stroke-width:4; stroke-opacity:1; fill:none" points="
  169.469,1283.34 195.668,1283.34 
  "/>
<polyline clip-path="url(#clip510)" style="stroke:#000000; stroke-width:4; stroke-opacity:1; fill:none" points="
  169.469,1009.07 195.668,1009.07 
  "/>
<polyline clip-path="url(#clip510)" style="stroke:#000000; stroke-width:4; stroke-opacity:1; fill:none" points="
  169.469,734.791 195.668,734.791 
  "/>
<polyline clip-path="url(#clip510)" style="stroke:#000000; stroke-width:4; stroke-opacity:1; fill:none" points="
  169.469,460.515 195.668,460.515 
  "/>
<polyline clip-path="url(#clip510)" style="stroke:#000000; stroke-width:4; stroke-opacity:1; fill:none" points="
  169.469,186.239 195.668,186.239 
  "/>
<path clip-path="url(#clip510)" d="M 0 0 M51.3625 1283.79 L81.0383 1283.79 L81.0383 1287.73 L51.3625 1287.73 L51.3625 1283.79 Z" fill="#000000" fill-rule="evenodd" fill-opacity="1" /><path clip-path="url(#clip510)" d="M 0 0 M90.1354 1296.69 L106.455 1296.69 L106.455 1300.62 L84.5105 1300.62 L84.5105 1296.69 Q87.1725 1293.93 91.7558 1289.3 Q96.3623 1284.65 97.5428 1283.31 Q99.7882 1280.79 100.668 1279.05 Q101.571 1277.29 101.571 1275.6 Q101.571 1272.85 99.6261 1271.11 Q97.7048 1269.37 94.603 1269.37 Q92.4039 1269.37 89.9503 1270.14 Q87.5197 1270.9 84.7419 1272.45 L84.7419 1267.73 Q87.566 1266.6 90.0197 1266.02 Q92.4734 1265.44 94.5104 1265.44 Q99.8808 1265.44 103.075 1268.12 Q106.27 1270.81 106.27 1275.3 Q106.27 1277.43 105.459 1279.35 Q104.672 1281.25 102.566 1283.84 Q101.987 1284.51 98.8854 1287.73 Q95.7836 1290.92 90.1354 1296.69 Z" fill="#000000" fill-rule="evenodd" fill-opacity="1" /><path clip-path="url(#clip510)" d="M 0 0 M121.524 1269.14 Q117.913 1269.14 116.084 1272.71 Q114.279 1276.25 114.279 1283.38 Q114.279 1290.48 116.084 1294.05 Q117.913 1297.59 121.524 1297.59 Q125.158 1297.59 126.964 1294.05 Q128.793 1290.48 128.793 1283.38 Q128.793 1276.25 126.964 1272.71 Q125.158 1269.14 121.524 1269.14 M121.524 1265.44 Q127.334 1265.44 130.39 1270.04 Q133.469 1274.63 133.469 1283.38 Q133.469 1292.1 130.39 1296.71 Q127.334 1301.29 121.524 1301.29 Q115.714 1301.29 112.635 1296.71 Q109.58 1292.1 109.58 1283.38 Q109.58 1274.63 112.635 1270.04 Q115.714 1265.44 121.524 1265.44 Z" fill="#000000" fill-rule="evenodd" fill-opacity="1" /><path clip-path="url(#clip510)" d="M 0 0 M51.9875 1009.52 L81.6633 1009.52 L81.6633 1013.45 L51.9875 1013.45 L51.9875 1009.52 Z" fill="#000000" fill-rule="evenodd" fill-opacity="1" /><path clip-path="url(#clip510)" d="M 0 0 M87.5429 1022.41 L95.1817 1022.41 L95.1817 996.046 L86.8716 997.713 L86.8716 993.454 L95.1354 991.787 L99.8113 991.787 L99.8113 1022.41 L107.45 1022.41 L107.45 1026.35 L87.5429 1026.35 L87.5429 1022.41 Z" fill="#000000" fill-rule="evenodd" fill-opacity="1" /><path clip-path="url(#clip510)" d="M 0 0 M112.566 991.787 L130.922 991.787 L130.922 995.722 L116.848 995.722 L116.848 1004.19 Q117.867 1003.85 118.885 1003.69 Q119.904 1003.5 120.922 1003.5 Q126.709 1003.5 130.089 1006.67 Q133.469 1009.84 133.469 1015.26 Q133.469 1020.84 129.996 1023.94 Q126.524 1027.02 120.205 1027.02 Q118.029 1027.02 115.76 1026.65 Q113.515 1026.28 111.108 1025.54 L111.108 1020.84 Q113.191 1021.97 115.413 1022.53 Q117.635 1023.08 120.112 1023.08 Q124.117 1023.08 126.455 1020.98 Q128.793 1018.87 128.793 1015.26 Q128.793 1011.65 126.455 1009.54 Q124.117 1007.44 120.112 1007.44 Q118.237 1007.44 116.362 1007.85 Q114.51 1008.27 112.566 1009.15 L112.566 991.787 Z" fill="#000000" fill-rule="evenodd" fill-opacity="1" /><path clip-path="url(#clip510)" d="M 0 0 M50.9921 735.242 L80.6679 735.242 L80.6679 739.178 L50.9921 739.178 L50.9921 735.242 Z" fill="#000000" fill-rule="evenodd" fill-opacity="1" /><path clip-path="url(#clip510)" d="M 0 0 M86.5475 748.136 L94.1863 748.136 L94.1863 721.77 L85.8762 723.437 L85.8762 719.178 L94.14 717.511 L98.8159 717.511 L98.8159 748.136 L106.455 748.136 L106.455 752.071 L86.5475 752.071 L86.5475 748.136 Z" fill="#000000" fill-rule="evenodd" fill-opacity="1" /><path clip-path="url(#clip510)" d="M 0 0 M121.524 720.59 Q117.913 720.59 116.084 724.155 Q114.279 727.696 114.279 734.826 Q114.279 741.932 116.084 745.497 Q117.913 749.039 121.524 749.039 Q125.158 749.039 126.964 745.497 Q128.793 741.932 128.793 734.826 Q128.793 727.696 126.964 724.155 Q125.158 720.59 121.524 720.59 M121.524 716.886 Q127.334 716.886 130.39 721.493 Q133.469 726.076 133.469 734.826 Q133.469 743.553 130.39 748.159 Q127.334 752.742 121.524 752.742 Q115.714 752.742 112.635 748.159 Q109.58 743.553 109.58 734.826 Q109.58 726.076 112.635 721.493 Q115.714 716.886 121.524 716.886 Z" fill="#000000" fill-rule="evenodd" fill-opacity="1" /><path clip-path="url(#clip510)" d="M 0 0 M77.7744 460.967 L107.45 460.967 L107.45 464.902 L77.7744 464.902 L77.7744 460.967 Z" fill="#000000" fill-rule="evenodd" fill-opacity="1" /><path clip-path="url(#clip510)" d="M 0 0 M112.566 443.235 L130.922 443.235 L130.922 447.17 L116.848 447.17 L116.848 455.642 Q117.867 455.295 118.885 455.133 Q119.904 454.948 120.922 454.948 Q126.709 454.948 130.089 458.119 Q133.469 461.291 133.469 466.707 Q133.469 472.286 129.996 475.388 Q126.524 478.466 120.205 478.466 Q118.029 478.466 115.76 478.096 Q113.515 477.726 111.108 476.985 L111.108 472.286 Q113.191 473.42 115.413 473.976 Q117.635 474.531 120.112 474.531 Q124.117 474.531 126.455 472.425 Q128.793 470.318 128.793 466.707 Q128.793 463.096 126.455 460.99 Q124.117 458.883 120.112 458.883 Q118.237 458.883 116.362 459.3 Q114.51 459.717 112.566 460.596 L112.566 443.235 Z" fill="#000000" fill-rule="evenodd" fill-opacity="1" /><path clip-path="url(#clip510)" d="M 0 0 M121.524 172.038 Q117.913 172.038 116.084 175.603 Q114.279 179.144 114.279 186.274 Q114.279 193.38 116.084 196.945 Q117.913 200.487 121.524 200.487 Q125.158 200.487 126.964 196.945 Q128.793 193.38 128.793 186.274 Q128.793 179.144 126.964 175.603 Q125.158 172.038 121.524 172.038 M121.524 168.334 Q127.334 168.334 130.39 172.941 Q133.469 177.524 133.469 186.274 Q133.469 195.001 130.39 199.607 Q127.334 204.19 121.524 204.19 Q115.714 204.19 112.635 199.607 Q109.58 195.001 109.58 186.274 Q109.58 177.524 112.635 172.941 Q115.714 168.334 121.524 168.334 Z" fill="#000000" fill-rule="evenodd" fill-opacity="1" /><polyline clip-path="url(#clip512)" style="stroke:#009af9; stroke-width:4; stroke-opacity:1; fill:none" points="
  231.26,208.197 235.387,191.672 239.515,173.134 243.643,183.074 247.77,198.601 251.898,180.611 256.026,169.491 260.153,155.044 264.281,177.214 268.409,200.802 
  272.536,186.694 276.664,210.246 280.792,208.465 284.919,200.638 289.047,189.6 293.175,208.739 297.302,228.675 301.43,225.524 305.558,243.426 309.685,222.837 
  313.813,227.195 317.941,217.1 322.068,220.974 326.196,196.834 330.324,208.436 334.451,213.653 338.579,236.92 342.707,253.228 346.834,260.315 350.962,277.273 
  355.09,287.489 359.217,313.141 363.345,295.648 367.473,276.735 371.6,258.378 375.728,266.948 379.856,251.576 383.983,242.109 388.111,215.693 392.239,191.728 
  396.366,186.592 400.494,189.039 404.622,188.844 408.749,205.218 412.877,212.523 417.005,236.144 421.132,246.423 425.26,220.902 429.388,196.767 433.515,202.239 
  437.643,219.249 441.771,202.049 445.898,193.684 450.026,209.13 454.154,191.387 458.281,163.974 462.409,138.038 466.537,131.31 470.664,157.407 474.792,155.058 
  478.92,179.512 483.047,178.332 487.175,153.016 491.303,161.388 495.43,153.417 499.558,131.536 503.686,142.017 507.813,130.91 511.941,123.359 516.069,106.209 
  520.196,109.378 524.324,126.161 528.452,131.151 532.579,107.13 536.707,88.74 540.835,87.9763 544.962,106.004 549.09,96.6403 553.218,96.9826 557.345,100.411 
  561.473,104.696 565.601,112.244 569.728,127.065 573.856,148.929 577.984,160.253 582.111,156.499 586.239,181.192 590.367,194.127 594.494,211.889 598.622,217.854 
  602.75,200.257 606.877,199.647 611.005,186.299 615.133,209.913 619.26,199.014 623.388,201.666 627.516,214.749 631.643,199.183 635.771,173.27 639.899,195.252 
  644.026,189.173 648.154,206.014 652.282,222.891 656.409,239.493 660.537,236.06 664.665,259.882 668.792,284.707 672.92,291.844 677.048,269.685 681.175,261.712 
  685.303,255.224 689.431,250.783 693.558,268.634 697.686,282.953 701.814,293.167 705.941,277.083 710.069,268.522 714.197,257.862 718.324,279.545 722.452,292.845 
  726.58,297.853 730.707,306.02 734.835,318.572 738.963,291.763 743.09,276.919 747.218,250.405 751.346,232.603 755.473,227.011 759.601,244.636 763.729,246.582 
  767.856,260.138 771.984,284.635 776.112,274.269 780.239,293.641 784.367,286.935 788.495,313.289 792.622,337.654 796.75,332.233 800.878,337.592 805.005,312.476 
  809.133,318.189 813.261,314.287 817.388,336.042 821.516,343.93 825.644,366.864 829.771,358.736 833.899,379.655 838.027,405.141 842.154,387.465 846.282,365.903 
  850.41,349.399 854.537,325.487 858.665,341.49 862.793,366.655 866.92,360.316 871.048,369.185 875.175,361.238 879.303,351.515 883.431,367.154 887.558,387.035 
  891.686,409.619 895.814,386.697 899.941,385.073 904.069,411.834 908.197,391.374 912.324,415.789 916.452,420.191 920.58,393.635 924.707,382.644 928.835,407.969 
  932.963,432.48 937.09,447.392 941.218,460.888 945.346,484.986 949.473,489.875 953.601,516.83 957.729,490.296 961.856,471.095 965.984,447.346 970.112,461.376 
  974.239,460.155 978.367,487.199 982.495,475.956 986.622,466.743 990.75,458.549 994.878,477.805 999.005,493.101 1003.13,494.712 1007.26,491.961 1011.39,484.981 
  1015.52,505.466 1019.64,515.724 1023.77,531.158 1027.9,515.254 1032.03,535.797 1036.15,557.057 1040.28,541.629 1044.41,563.206 1048.54,574.327 1052.67,552.486 
  1056.79,563.533 1060.92,539.533 1065.05,562.992 1069.18,543.975 1073.3,548.67 1077.43,569.698 1081.56,584.392 1085.69,578.371 1089.81,595.944 1093.94,577.301 
  1098.07,576.454 1102.2,564.613 1106.32,561.709 1110.45,536.284 1114.58,530.143 1118.71,533.243 1122.84,535.603 1126.96,533.651 1131.09,516.886 1135.22,510.102 
  1139.35,506.138 1143.47,527.119 1147.6,546.966 1151.73,530.98 1155.86,517.01 1159.98,495.383 1164.11,480.862 1168.24,462.504 1172.37,437.578 1176.5,455.551 
  1180.62,445.134 1184.75,439.017 1188.88,459.989 1193.01,444.866 1197.13,462.237 1201.26,485.467 1205.39,465.332 1209.52,454.817 1213.64,445.41 1217.77,445.604 
  1221.9,443.799 1226.03,451.586 1230.15,431.375 1234.28,431.394 1238.41,428.13 1242.54,431.047 1246.67,414.454 1250.79,438.453 1254.92,431.487 1259.05,413.009 
  1263.18,415.508 1267.3,398.459 1271.43,417.237 1275.56,397.334 1279.69,405.772 1283.81,387.088 1287.94,360.04 1292.07,344.358 1296.2,347.62 1300.33,343.428 
  1304.45,335.741 1308.58,322.54 1312.71,303.086 1316.84,288.314 1320.96,291 1325.09,287.879 1329.22,265.922 1333.35,271.27 1337.47,256.605 1341.6,276.233 
  1345.73,286.875 1349.86,268.583 1353.98,278.832 1358.11,278.853 1362.24,251.581 1366.37,225.401 1370.5,218.197 1374.62,195.362 1378.75,212.801 1382.88,213.544 
  1387.01,223.275 1391.13,247.108 1395.26,240.642 1399.39,237.408 1403.52,248.968 1407.64,238.981 1411.77,211.932 1415.9,211.488 1420.03,221.27 1424.16,196.786 
  1428.28,200.357 1432.41,191.221 1436.54,209.002 1440.67,185.542 1444.79,164.311 1448.92,168.473 1453.05,144.879 1457.18,152.021 1461.3,164.365 1465.43,181.011 
  1469.56,172.031 1473.69,191.436 1477.81,202.441 1481.94,194.225 1486.07,176.842 1490.2,150.525 1494.33,148.16 1498.45,140.2 1502.58,114.777 1506.71,127.605 
  1510.84,137.127 1514.96,164.457 1519.09,139.168 1523.22,127.691 1527.35,106.342 1531.47,122.9 1535.6,113.726 1539.73,124.74 1543.86,123.812 1547.98,123.105 
  1552.11,118.204 1556.24,126.727 1560.37,140.23 1564.5,134.257 1568.62,111.413 1572.75,124.764 1576.88,150.358 1581.01,132.921 1585.13,125.48 1589.26,107.488 
  1593.39,106.253 1597.52,125.144 1601.64,121.245 1605.77,105.197 1609.9,130.97 1614.03,150.748 1618.16,154.926 1622.28,134.16 1626.41,110.408 1630.54,128.949 
  1634.67,149.824 1638.79,164.521 1642.92,149.279 1647.05,157.907 1651.18,183.852 1655.3,177.89 1659.43,176.743 1663.56,159.409 1667.69,178.79 1671.81,170.594 
  1675.94,157.368 1680.07,145.488 1684.2,147.027 1688.33,138.156 1692.45,136.435 1696.58,148.939 1700.71,164.282 1704.84,148.151 1708.96,158.968 1713.09,170.564 
  1717.22,175.191 1721.35,182.568 1725.47,172.669 1729.6,198.778 1733.73,225.963 1737.86,226.826 1741.99,251.706 1746.11,262.637 1750.24,239.731 1754.37,257.73 
  1758.5,249.618 1762.62,224.253 1766.75,228.773 1770.88,253.737 1775.01,269.75 1779.13,278.216 1783.26,252.422 1787.39,252.522 1791.52,241.076 1795.64,265.479 
  1799.77,256.38 1803.9,236.363 1808.03,245.733 1812.16,236.382 1816.28,254.928 1820.41,239.351 1824.54,250.956 1828.67,276.34 1832.79,279.24 1836.92,271.1 
  1841.05,251.815 1845.18,244.135 1849.3,233.673 1853.43,251.002 1857.56,233.048 1861.69,208.98 1865.82,217.985 1869.94,230.406 1874.07,253.745 1878.2,265.245 
  1882.33,271.919 1886.45,287.742 1890.58,300.039 1894.71,273.033 1898.84,265.353 1902.96,288.275 1907.09,262.656 1911.22,258.263 1915.35,250.23 1919.47,239.861 
  1923.6,260.89 1927.73,274.8 1931.86,258.838 1935.99,285.792 1940.11,285.101 1944.24,299.771 1948.37,278.397 1952.5,261.44 1956.62,241.947 1960.75,223.127 
  1964.88,209.979 1969.01,234.555 1973.13,249.208 1977.26,264.881 1981.39,291.677 1985.52,305.52 1989.65,315.672 1993.77,340.021 1997.9,331.313 2002.03,318.53 
  2006.16,324.651 2010.28,317.727 2014.41,327.78 2018.54,354.822 2022.67,375.543 2026.79,373.025 2030.92,370.119 2035.05,389.052 2039.18,366.655 2043.3,379.133 
  2047.43,383.469 2051.56,390.009 2055.69,402.506 2059.82,378.129 2063.94,380.482 2068.07,355.536 2072.2,355.687 2076.33,352.473 2080.45,352.329 2084.58,338.395 
  2088.71,351.6 2092.84,377.049 2096.96,396.577 2101.09,397.122 2105.22,400.12 2109.35,387.094 2113.48,368.366 2117.6,356.527 2121.73,361.778 2125.86,362.482 
  2129.99,367.883 2134.11,354.774 2138.24,376.659 2142.37,371.906 2146.5,376.419 2150.62,354.54 2154.75,345.661 2158.88,325.434 2163.01,307.788 2167.13,311.612 
  2171.26,329.332 2175.39,311.79 2179.52,295.601 2183.65,283.83 2187.77,298.038 2191.9,302.758 2196.03,300.242 2200.16,297.146 2204.28,286.553 2208.41,280.136 
  2212.54,284.592 2216.67,270.821 2220.79,282.076 2224.92,287.041 2229.05,280.993 2233.18,265.313 2237.31,257.845 2241.43,255.92 2245.56,280.733 2249.69,260.485 
  2253.82,259.343 2257.94,246.949 2262.07,258.068 2266.2,252.415 2270.33,275.802 2274.45,272.972 2278.58,289.476 2282.71,308.204 2286.84,290.97 2290.96,301.802 
  
  "/>
<polyline clip-path="url(#clip512)" style="stroke:#e26f46; stroke-width:4; stroke-opacity:1; fill:none" points="
  231.26,208.775 235.387,231.632 239.515,229.356 243.643,211.558 247.77,211.223 251.898,224.761 256.026,249.074 260.153,254.692 264.281,258.011 268.409,260.795 
  272.536,277.978 276.664,290.74 280.792,267.268 284.919,280.078 289.047,266.152 293.175,276.863 297.302,268.808 301.43,252.118 305.558,278.065 309.685,274.053 
  313.813,293.53 317.941,284.259 322.068,259.008 326.196,284.749 330.324,300.33 334.451,315.191 338.579,299.952 342.707,319.79 346.834,306.937 350.962,332.204 
  355.09,353.5 359.217,328.16 363.345,329.836 367.473,342.599 371.6,344.651 375.728,344.004 379.856,370.477 383.983,360.314 388.111,348.334 392.239,373.501 
  396.366,389.889 400.494,404.029 404.622,401.292 408.749,400.948 412.877,420.405 417.005,431.952 421.132,448.059 425.26,425.648 429.388,433.645 433.515,443.595 
  437.643,445.128 441.771,445.886 445.898,463.924 450.026,472.406 454.154,462.142 458.281,470.31 462.409,454.277 466.537,471.839 470.664,455.164 474.792,473.208 
  478.92,475.539 483.047,482.013 487.175,476.518 491.303,500.346 495.43,509.369 499.558,520.177 503.686,512.558 507.813,489.495 511.941,465.539 516.069,444.838 
  520.196,453.746 524.324,475.996 528.452,483.787 532.579,508.933 536.707,501.187 540.835,511.726 544.962,498.831 549.09,490.62 553.218,496.191 557.345,492.993 
  561.473,502.584 565.601,493.027 569.728,518.96 573.856,528.943 577.984,546.691 582.111,556.915 586.239,557.53 590.367,579.004 594.494,588.553 598.622,599.565 
  602.75,573.219 606.877,560.685 611.005,541.31 615.133,548.337 619.26,557.056 623.388,550.291 627.516,523.988 631.643,530.115 635.771,532.258 639.899,541.322 
  644.026,561.726 648.154,559.959 652.282,575.814 656.409,583.395 660.537,583.827 664.665,589.28 668.792,577.787 672.92,575.897 677.048,591.454 681.175,598.717 
  685.303,582.421 689.431,609.452 693.558,582.666 697.686,581.594 701.814,592.515 705.941,585.402 710.069,558.937 714.197,559.505 718.324,550.88 722.452,528.578 
  726.58,510.426 730.707,536.901 734.835,536.129 738.963,555.722 743.09,572.247 747.218,579.467 751.346,576.338 755.473,587.124 759.601,568.341 763.729,571.498 
  767.856,567.804 771.984,591.254 776.112,587.845 780.239,597.638 784.367,571.596 788.495,573.343 792.622,568.431 796.75,546.91 800.878,542.964 805.005,563.786 
  809.133,560.016 813.261,570.572 817.388,590.774 821.516,600.992 825.644,621.629 829.771,606.243 833.899,582.229 838.027,564.782 842.154,548.06 846.282,567.575 
  850.41,551.603 854.537,566.203 858.665,589.074 862.793,605.729 866.92,623.456 871.048,620.028 875.175,606.216 879.303,584.249 883.431,602.272 887.558,587.385 
  891.686,600.081 895.814,593.708 899.941,578.642 904.069,574.281 908.197,568.896 912.324,591.217 916.452,577.875 920.58,562.407 924.707,574.975 928.835,592.4 
  932.963,578.973 937.09,598.805 941.218,574.262 945.346,584.451 949.473,568.75 953.601,551.623 957.729,560.006 961.856,576.961 965.984,561.372 970.112,545.015 
  974.239,568.363 978.367,541.136 982.495,558.75 986.622,583.889 990.75,566.412 994.878,581.262 999.005,593.021 1003.13,588.636 1007.26,605.311 1011.39,631.887 
  1015.52,622.73 1019.64,632.902 1023.77,653.16 1027.9,629.641 1032.03,632.251 1036.15,655.223 1040.28,630.949 1044.41,638.09 1048.54,644.697 1052.67,643.189 
  1056.79,657.522 1060.92,653.783 1065.05,647.784 1069.18,668.542 1073.3,657.727 1077.43,634.704 1081.56,615.305 1085.69,612.271 1089.81,598.403 1093.94,593.354 
  1098.07,584.661 1102.2,611.039 1106.32,620.998 1110.45,624.203 1114.58,627.492 1118.71,636.032 1122.84,614.298 1126.96,641.373 1131.09,667.801 1135.22,646.433 
  1139.35,632.849 1143.47,656.62 1147.6,670.071 1151.73,681.249 1155.86,660.365 1159.98,663.863 1164.11,638.064 1168.24,623.038 1172.37,648.984 1176.5,663.276 
  1180.62,657.951 1184.75,633.708 1188.88,659.256 1193.01,677.565 1197.13,672.276 1201.26,677.208 1205.39,672.007 1209.52,681.984 1213.64,667.631 1217.77,658.347 
  1221.9,679.384 1226.03,657.302 1230.15,644.277 1234.28,635.126 1238.41,609.496 1242.54,635.461 1246.67,645.93 1250.79,659.235 1254.92,675.689 1259.05,674.22 
  1263.18,694.52 1267.3,672.707 1271.43,687.614 1275.56,706.275 1279.69,717.344 1283.81,729.343 1287.94,732.536 1292.07,755.333 1296.2,747.287 1300.33,765.529 
  1304.45,750.556 1308.58,733.178 1312.71,740.329 1316.84,760.445 1320.96,758.741 1325.09,778.792 1329.22,785.666 1333.35,766.599 1337.47,753.116 1341.6,754.395 
  1345.73,756.25 1349.86,767.192 1353.98,759.087 1358.11,774.185 1362.24,799.519 1366.37,811.611 1370.5,836.847 1374.62,861.316 1378.75,857.543 1382.88,881.601 
  1387.01,902.753 1391.13,877.648 1395.26,859.433 1399.39,885.657 1403.52,863.494 1407.64,849.565 1411.77,870.931 1415.9,844.669 1420.03,853.314 1424.16,838.093 
  1428.28,844.656 1432.41,840.742 1436.54,858.871 1440.67,863.002 1444.79,881.248 1448.92,857.517 1453.05,850.531 1457.18,862.53 1461.3,857.836 1465.43,865.633 
  1469.56,888.503 1473.69,870.646 1477.81,874.981 1481.94,896.452 1486.07,914.438 1490.2,898.388 1494.33,896.262 1498.45,898.401 1502.58,912.354 1506.71,934.438 
  1510.84,933.756 1514.96,934.752 1519.09,954.529 1523.22,971.567 1527.35,958.701 1531.47,951.602 1535.6,927.283 1539.73,947.196 1543.86,971.292 1547.98,992.74 
  1552.11,1009.83 1556.24,998.105 1560.37,976.947 1564.5,964.117 1568.62,990.575 1572.75,1014.85 1576.88,1030.11 1581.01,1047.13 1585.13,1030.26 1589.26,1048.47 
  1593.39,1074.1 1597.52,1054.01 1601.64,1079.65 1605.77,1073.2 1609.9,1099.58 1614.03,1115.58 1618.16,1113.76 1622.28,1140.29 1626.41,1122.71 1630.54,1121.9 
  1634.67,1119.32 1638.79,1119.95 1642.92,1132.88 1647.05,1147.26 1651.18,1146.74 1655.3,1156.23 1659.43,1145.27 1663.56,1142.54 1667.69,1166.23 1671.81,1138.97 
  1675.94,1140.8 1680.07,1147.91 1684.2,1124.68 1688.33,1103.01 1692.45,1085.72 1696.58,1091.92 1700.71,1092.72 1704.84,1108.83 1708.96,1083.01 1713.09,1060.23 
  1717.22,1054.55 1721.35,1067.47 1725.47,1092.4 1729.6,1085.7 1733.73,1094.16 1737.86,1113.09 1741.99,1136.5 1746.11,1151.61 1750.24,1131.3 1754.37,1128.57 
  1758.5,1123.1 1762.62,1131.69 1766.75,1142.75 1770.88,1134.43 1775.01,1149.84 1779.13,1175.16 1783.26,1199.67 1787.39,1180.77 1791.52,1166.53 1795.64,1149.3 
  1799.77,1171.59 1803.9,1162.46 1808.03,1184.87 1812.16,1165.1 1816.28,1149.95 1820.41,1145.78 1824.54,1138.67 1828.67,1134.19 1832.79,1156.39 1836.92,1144.03 
  1841.05,1135.02 1845.18,1152.47 1849.3,1142.09 1853.43,1116.55 1857.56,1091.58 1861.69,1116.45 1865.82,1129.11 1869.94,1136.64 1874.07,1130.88 1878.2,1129.38 
  1882.33,1149.82 1886.45,1158.54 1890.58,1141.62 1894.71,1152.05 1898.84,1147.77 1902.96,1147.43 1907.09,1160.15 1911.22,1161.34 1915.35,1137.84 1919.47,1142.17 
  1923.6,1146.82 1927.73,1150.08 1931.86,1156.6 1935.99,1141.42 1940.11,1166.88 1944.24,1171.92 1948.37,1190.1 1952.5,1203.18 1956.62,1201.08 1960.75,1213.04 
  1964.88,1223.37 1969.01,1201.12 1973.13,1228.53 1977.26,1243.91 1981.39,1225.05 1985.52,1230.63 1989.65,1212.29 1993.77,1239.03 1997.9,1265.12 2002.03,1248.44 
  2006.16,1271.1 2010.28,1250.29 2014.41,1240.26 2018.54,1215.57 2022.67,1211.69 2026.79,1188 2030.92,1189.64 2035.05,1199.24 2039.18,1205.64 2043.3,1210.19 
  2047.43,1216.53 2051.56,1220.97 2055.69,1209.91 2059.82,1207.33 2063.94,1225.28 2068.07,1214.97 2072.2,1210.41 2076.33,1218.13 2080.45,1222.46 2084.58,1200.68 
  2088.71,1224.96 2092.84,1240.96 2096.96,1265.94 2101.09,1275.84 2105.22,1257.24 2109.35,1257.76 2113.48,1267.74 2117.6,1264.18 2121.73,1264.49 2125.86,1258.09 
  2129.99,1268.5 2134.11,1249.33 2138.24,1272.68 2142.37,1293.11 2146.5,1273.07 2150.62,1292.66 2154.75,1306.04 2158.88,1332.97 2163.01,1314.43 2167.13,1293.4 
  2171.26,1314.86 2175.39,1297.24 2179.52,1310.03 2183.65,1311.27 2187.77,1297.47 2191.9,1301.49 2196.03,1299.63 2200.16,1290.84 2204.28,1314.65 2208.41,1318.66 
  2212.54,1336.44 2216.67,1360.9 2220.79,1357.96 2224.92,1382.61 2229.05,1367.31 2233.18,1384.08 2237.31,1380.75 2241.43,1407.88 2245.56,1402.48 2249.69,1383.95 
  2253.82,1403.69 2257.94,1427.55 2262.07,1445.72 2266.2,1420.76 2270.33,1437.37 2274.45,1422.17 2278.58,1408.05 2282.71,1402.14 2286.84,1388.55 2290.96,1378.36 
  
  "/>
<path clip-path="url(#clip510)" d="
M1986.37 276.658 L2279.98 276.658 L2279.98 95.2176 L1986.37 95.2176  Z
  " fill="#ffffff" fill-rule="evenodd" fill-opacity="1"/>
<polyline clip-path="url(#clip510)" style="stroke:#000000; stroke-width:4; stroke-opacity:1; fill:none" points="
  1986.37,276.658 2279.98,276.658 2279.98,95.2176 1986.37,95.2176 1986.37,276.658 
  "/>
<polyline clip-path="url(#clip510)" style="stroke:#009af9; stroke-width:4; stroke-opacity:1; fill:none" points="
  2010.63,155.698 2156.19,155.698 
  "/>
<path clip-path="url(#clip510)" d="M 0 0 M2194.29 175.385 Q2192.48 180.015 2190.77 181.427 Q2189.05 182.839 2186.18 182.839 L2182.78 182.839 L2182.78 179.274 L2185.28 179.274 Q2187.04 179.274 2188.01 178.44 Q2188.99 177.607 2190.17 174.505 L2190.93 172.561 L2180.44 147.052 L2184.96 147.052 L2193.06 167.329 L2201.16 147.052 L2205.68 147.052 L2194.29 175.385 Z" fill="#000000" fill-rule="evenodd" fill-opacity="1" /><path clip-path="url(#clip510)" d="M 0 0 M2211.55 169.042 L2219.19 169.042 L2219.19 142.677 L2210.88 144.343 L2210.88 140.084 L2219.15 138.418 L2223.82 138.418 L2223.82 169.042 L2231.46 169.042 L2231.46 172.978 L2211.55 172.978 L2211.55 169.042 Z" fill="#000000" fill-rule="evenodd" fill-opacity="1" /><polyline clip-path="url(#clip510)" style="stroke:#e26f46; stroke-width:4; stroke-opacity:1; fill:none" points="
  2010.63,216.178 2156.19,216.178 
  "/>
<path clip-path="url(#clip510)" d="M 0 0 M2194.29 235.865 Q2192.48 240.495 2190.77 241.907 Q2189.05 243.319 2186.18 243.319 L2182.78 243.319 L2182.78 239.754 L2185.28 239.754 Q2187.04 239.754 2188.01 238.92 Q2188.99 238.087 2190.17 234.985 L2190.93 233.041 L2180.44 207.532 L2184.96 207.532 L2193.06 227.809 L2201.16 207.532 L2205.68 207.532 L2194.29 235.865 Z" fill="#000000" fill-rule="evenodd" fill-opacity="1" /><path clip-path="url(#clip510)" d="M 0 0 M2214.77 229.522 L2231.09 229.522 L2231.09 233.458 L2209.15 233.458 L2209.15 229.522 Q2211.81 226.768 2216.39 222.138 Q2221 217.485 2222.18 216.143 Q2224.43 213.62 2225.3 211.884 Q2226.21 210.124 2226.21 208.435 Q2226.21 205.68 2224.26 203.944 Q2222.34 202.208 2219.24 202.208 Q2217.04 202.208 2214.59 202.972 Q2212.16 203.735 2209.38 205.286 L2209.38 200.564 Q2212.2 199.43 2214.66 198.851 Q2217.11 198.273 2219.15 198.273 Q2224.52 198.273 2227.71 200.958 Q2230.91 203.643 2230.91 208.134 Q2230.91 210.263 2230.1 212.185 Q2229.31 214.083 2227.2 216.675 Q2226.62 217.347 2223.52 220.564 Q2220.42 223.759 2214.77 229.522 Z" fill="#000000" fill-rule="evenodd" fill-opacity="1" /></svg>
